<?xml version="1.0" encoding="utf-8"?>
<!-- Generated by IcoMoon.io -->
<!DOCTYPE svg PUBLIC "-//W3C//DTD SVG 1.1//EN" "http://www.w3.org/Graphics/SVG/1.1/DTD/svg11.dtd">
<svg version="1.1" xmlns="http://www.w3.org/2000/svg" xmlns:xlink="http://www.w3.org/1999/xlink" width="34" height="32" viewBox="0 0 34 32">
<path fill="#444444" d="M23.375 0c5.875 0 10.625 4.688 10.625 10.438v19.563l-4.969 2-5.031-2v-21.063c-0.031-1.188-0.281-1.563-1.188-2.188-0.906 0.594-0.75 1.063-0.813 2.188v13.063c-0.25 5.531-3.656 10-11.375 10-5.875 0-10.625-2.75-10.625-10v-20.031l4.969-1.969 5.031 2v19.469s-0.281 3.938 1.188 3.938c1.094-1.125 0.813-3.938 0.813-3.938v-11.469c0.25-5.531 5.688-10 11.375-10zM2.469 3.188l2.5 1.5 2.219-1.313-2.219-1.219zM9.281 30.031c6.688 0 6.5-8.156 6.5-8.156-0.031-0.281 0.219-11.563 0.219-11.875 0-3.781 1.688-6.094 3.75-7.719-2.875 1.438-5.594 4.375-5.75 7.719v13.75c-0.219 2.563-2.156 4.25-4.781 4.25-2.875 0-5.063-2.531-5.219-5.5v-15.875l-2-1.375v16.75s-0.188 6.813 5.75 7.875c0.5 0.094 1.031 0.156 1.531 0.156zM32 28.625v-18.625c0-4-2.125-6.063-5.781-7.281-0.469-0.094-1-0.156-1.5-0.156-4.219 0-6.719 3.281-6.719 7.438v12.219c0 3.094-1.344 6.969-4 7.781 4.531-1.344 6-4.938 6-8v-13.375c0.219-2.563 2.125-4.25 4.781-4.25s5 1.688 5.219 4.25v20.875zM8.938 26l0.375-0.031c-0.75-0.406-1.281-1.188-1.313-2.75v-17.969l-2 1.375v14.844s0.313 4.531 2.938 4.531zM28 29.5v-20.563c-0.125-1.813-1.313-2.781-3.219-2.781l-0.375 0.031c0.875 0.875 1.563 1.438 1.594 2.75v19.688z"></path>
</svg>
